<svg xmlns="http://www.w3.org/2000/svg" viewBox="0 0 64 64" fill="none" stroke="currentColor" stroke-linecap="round" stroke-linejoin="round">
  <!-- Shaft of the quill -->
  <path d="M8 56 Q20 40 32 28 Q44 16 58 6" stroke-width="1.2"/>
  <!-- Tip / nib -->
  <path d="M8 56 Q10 50 14 48" stroke-width="1.4"/>
  <!-- Barbs right side -->
  <path d="M58 6 Q52 14 46 20 Q40 26 34 31" stroke-width="0.9"/>
  <path d="M55 9 Q50 16 44 22 Q38 28 33 33" stroke-width="0.7" opacity="0.7"/>
  <path d="M51 12 Q46 19 41 25 Q36 30 32 35" stroke-width="0.6" opacity="0.5"/>
  <!-- Barbs left side -->
  <path d="M58 6 Q54 18 48 28 Q42 36 34 44" stroke-width="0.9"/>
  <path d="M55 9 Q51 20 46 30 Q40 38 33 46" stroke-width="0.7" opacity="0.7"/>
  <path d="M51 13 Q48 23 43 32 Q38 40 32 47" stroke-width="0.6" opacity="0.5"/>
  <!-- Ink line at tip -->
  <path d="M10 54 Q11 52 13 50" stroke-width="1" opacity="0.6"/>
</svg>
