<?xml version="1.0" encoding="utf-8"?>
<!-- Generator: Adobe Illustrator 15.0.0, SVG Export Plug-In . SVG Version: 6.00 Build 0)  -->
<!DOCTYPE svg PUBLIC "-//W3C//DTD SVG 1.1//EN" "http://www.w3.org/Graphics/SVG/1.1/DTD/svg11.dtd">
<svg version="1.1" id="Layer_1" xmlns="http://www.w3.org/2000/svg" xmlns:xlink="http://www.w3.org/1999/xlink" x="0px" y="0px"
	 width="600.945px" height="158.74px" viewBox="0 0 600.945 158.74" enable-background="new 0 0 600.945 158.74"
	 xml:space="preserve">
<g>
	<g>
		
			<linearGradient id="SVGID_1_" gradientUnits="userSpaceOnUse" x1="269.397" y1="-177.7446" x2="378.6724" y2="-177.7446" gradientTransform="matrix(0 -1 1 0 214.1445 379.9976)">
			<stop  offset="0" style="stop-color:#A6CE39"/>
			<stop  offset="0.5031" style="stop-color:#F8991D"/>
			<stop  offset="0.6034" style="stop-color:#F9A11B"/>
			<stop  offset="0.7813" style="stop-color:#FDB714"/>
			<stop  offset="1" style="stop-color:#FFD800"/>
		</linearGradient>
		<polygon opacity="0.88" fill="url(#SVGID_1_)" points="33.058,110.601 72.694,1.325 27.185,26.195 0.106,91.108 		"/>
		
			<linearGradient id="SVGID_2_" gradientUnits="userSpaceOnUse" x1="325.6157" y1="335.6836" x2="372.4292" y2="335.6836" gradientTransform="matrix(0 1 -1 0 381.6226 -215.0151)">
			<stop  offset="0" style="stop-color:#A6CE39"/>
			<stop  offset="0.5031" style="stop-color:#F8991D"/>
			<stop  offset="0.6034" style="stop-color:#F9A11B"/>
			<stop  offset="0.7813" style="stop-color:#FDB714"/>
			<stop  offset="1" style="stop-color:#FFD800"/>
		</linearGradient>
		<polygon opacity="0.88" fill="url(#SVGID_2_)" points="33.058,110.601 16.908,157.414 74.97,110.601 74.97,110.601 		"/>
		
			<linearGradient id="SVGID_3_" gradientUnits="userSpaceOnUse" x1="269.397" y1="-177.7446" x2="378.6724" y2="-177.7446" gradientTransform="matrix(0 -1 1 0 214.1445 379.9976)">
			<stop  offset="0" style="stop-color:#000000"/>
			<stop  offset="0.1085" style="stop-color:#131313;stop-opacity:0.8915"/>
			<stop  offset="0.2324" style="stop-color:#353436;stop-opacity:0.7676"/>
			<stop  offset="0.3637" style="stop-color:#505052;stop-opacity:0.6363"/>
			<stop  offset="0.5003" style="stop-color:#6B6C6E;stop-opacity:0.4997"/>
			<stop  offset="0.641" style="stop-color:#8A8C8E;stop-opacity:0.359"/>
			<stop  offset="0.7852" style="stop-color:#B1B3B5;stop-opacity:0.2148"/>
			<stop  offset="0.9294" style="stop-color:#E1E2E3;stop-opacity:0.0706"/>
			<stop  offset="1" style="stop-color:#FFFFFF;stop-opacity:0"/>
		</linearGradient>
		<polygon opacity="0.18" fill="url(#SVGID_3_)" points="33.058,110.601 72.694,1.325 27.185,26.195 0.106,91.108 		"/>
		
			<linearGradient id="SVGID_4_" gradientUnits="userSpaceOnUse" x1="325.6157" y1="335.6836" x2="372.4292" y2="335.6836" gradientTransform="matrix(0 1 -1 0 381.6226 -215.0151)">
			<stop  offset="0" style="stop-color:#000000;stop-opacity:0.83"/>
			<stop  offset="0.1085" style="stop-color:#131313;stop-opacity:0.7399"/>
			<stop  offset="0.2324" style="stop-color:#353436;stop-opacity:0.6371"/>
			<stop  offset="0.3637" style="stop-color:#505052;stop-opacity:0.5282"/>
			<stop  offset="0.5003" style="stop-color:#6B6C6E;stop-opacity:0.4148"/>
			<stop  offset="0.641" style="stop-color:#8A8C8E;stop-opacity:0.298"/>
			<stop  offset="0.7852" style="stop-color:#B1B3B5;stop-opacity:0.1783"/>
			<stop  offset="0.9294" style="stop-color:#E1E2E3;stop-opacity:0.0586"/>
			<stop  offset="1" style="stop-color:#FFFFFF;stop-opacity:0"/>
		</linearGradient>
		<polygon opacity="0.18" fill="url(#SVGID_4_)" points="33.058,110.601 16.908,157.414 74.97,110.601 74.97,110.601 		"/>
		
			<linearGradient id="SVGID_5_" gradientUnits="userSpaceOnUse" x1="269.397" y1="-176.6064" x2="353.8022" y2="-176.6064" gradientTransform="matrix(0 -1 1 0 214.1445 379.9976)">
			<stop  offset="0" style="stop-color:#A6CE39"/>
			<stop  offset="0.5031" style="stop-color:#00B5AD"/>
			<stop  offset="0.616" style="stop-color:#00B8B3"/>
			<stop  offset="0.8155" style="stop-color:#44C1C5"/>
			<stop  offset="1" style="stop-color:#70CCD9"/>
		</linearGradient>
		<polygon opacity="0.88" fill="url(#SVGID_5_)" points="33.058,110.601 74.97,110.601 27.185,26.195 0.106,91.108 		"/>
	</g>
	<g>
		<path d="M153.573,98.421c0,2.508-0.53,4.729-1.59,6.664c-1.06,1.936-2.501,3.558-4.322,4.865c-1.822,1.309-3.942,2.304-6.36,2.984
			c-2.419,0.681-4.988,1.022-7.706,1.022c-1.142,0-2.419-0.082-3.833-0.245c-1.415-0.163-2.868-0.394-4.363-0.693
			c-1.496-0.298-2.99-0.652-4.485-1.06c-1.496-0.408-2.923-0.856-4.281-1.346l1.957-3.914l2.61,0.57
			c0.652,0.163,1.413,0.354,2.283,0.571c0.869,0.218,1.794,0.407,2.772,0.57s1.957,0.313,2.936,0.449s1.875,0.203,2.691,0.203h3.343
			c1.794,0,3.506-0.244,5.137-0.733s3.071-1.209,4.322-2.161c1.25-0.95,2.242-2.12,2.976-3.506c0.734-1.387,1.101-2.977,1.101-4.771
			c0-0.761-0.191-1.604-0.571-2.528c-0.381-0.924-0.789-1.685-1.223-2.283v0.082c-0.762-1.032-1.618-1.862-2.569-2.487
			c-0.952-0.625-1.93-1.102-2.936-1.428c-1.007-0.326-2.067-0.557-3.18-0.692c-1.115-0.136-2.216-0.258-3.303-0.367
			c-1.849-0.108-3.724-0.285-5.626-0.53c-1.904-0.244-3.724-0.909-5.463-1.998v0.082c-1.957-1.087-3.575-2.663-4.852-4.729
			c-1.278-2.065-1.917-4.403-1.917-7.013c0-3.588,1.317-6.659,3.955-9.215c2.636-2.555,6.157-4.294,10.56-5.219h-0.082
			c0.652-0.108,1.617-0.23,2.895-0.367c1.276-0.135,2.704-0.203,4.281-0.203c0.869,0,1.875,0.094,3.017,0.28
			s2.324,0.414,3.547,0.682s2.432,0.588,3.629,0.962c1.195,0.374,2.283,0.748,3.262,1.122l-1.875,4.374
			c-1.415-0.489-2.705-0.909-3.874-1.264c-1.169-0.353-2.283-0.624-3.343-0.815c-1.06-0.189-2.093-0.339-3.099-0.448
			c-1.007-0.108-2.053-0.163-3.14-0.163c-1.686,0-3.412,0.203-5.178,0.611c-1.767,0.407-3.384,1.02-4.852,1.835
			s-2.678,1.875-3.629,3.18c-0.952,1.305-1.427,2.854-1.427,4.648c0,0.599,0.108,1.237,0.326,1.916
			c0.218,0.681,0.517,1.346,0.899,1.998s0.818,1.278,1.309,1.876c0.49,0.599,1.008,1.087,1.553,1.468
			c1.417,0.869,2.902,1.427,4.456,1.671c1.553,0.245,3.12,0.422,4.702,0.53c1.853,0.109,3.854,0.382,6.007,0.817
			c2.153,0.437,4.156,1.228,6.01,2.372c0.981,0.654,1.867,1.431,2.656,2.33c0.79,0.899,1.472,1.866,2.044,2.902
			s1.022,2.112,1.349,3.229C153.408,96.229,153.573,97.332,153.573,98.421z"/>
		<path d="M224.76,106.477c-2.827,2.338-5.817,4.146-8.97,5.423c-3.154,1.277-6.47,1.916-9.949,1.916
			c-3.806,0-7.367-0.734-10.682-2.202c-3.316-1.468-6.211-3.438-8.685-5.911c-2.475-2.474-4.417-5.368-5.831-8.685
			c-1.414-3.315-2.12-6.851-2.12-10.602c0-3.804,0.706-7.365,2.12-10.682c1.413-3.315,3.356-6.225,5.831-8.726
			c2.473-2.5,5.368-4.471,8.685-5.912c3.315-1.439,6.876-2.16,10.682-2.16c2.936,0,5.872,0.544,8.807,1.631
			c2.936,1.088,5.843,2.664,8.725,4.729l-3.669,2.936c-4.35-3.044-8.97-4.566-13.863-4.566c-3.153,0-6.103,0.598-8.848,1.791
			c-2.746,1.194-5.137,2.809-7.176,4.843c-2.039,2.035-3.657,4.449-4.852,7.245c-1.196,2.795-1.794,5.766-1.794,8.912
			c0,3.094,0.598,6.01,1.794,8.751c1.195,2.74,2.813,5.143,4.852,7.204s4.43,3.689,7.176,4.884c2.745,1.193,5.694,1.79,8.848,1.79
			c2.772,0,5.504-0.557,8.195-1.672c2.691-1.113,5.26-2.703,7.706-4.771L224.76,106.477z"/>
		<path d="M253.38,92.858v20.468h-4.648V59.589h15.373c2.332,0,4.486,0.462,6.466,1.386c1.979,0.925,3.7,2.161,5.164,3.71
			c1.464,1.55,2.616,3.317,3.457,5.301c0.841,1.985,1.262,4.036,1.262,6.156c0,1.631-0.218,3.235-0.652,4.812
			c-0.436,1.577-1.088,3.031-1.957,4.362c-0.871,1.333-1.917,2.516-3.14,3.547c-1.223,1.034-2.597,1.876-4.118,2.528
			c1.087,1.414,2.188,2.842,3.303,4.281c1.113,1.44,2.214,2.868,3.302,4.281l10.275,13.373h-5.953l-15.82-20.468H253.38z
			 M253.38,64.318v23.811h10.722c1.636,0,3.178-0.312,4.624-0.938c1.445-0.625,2.686-1.468,3.723-2.528
			c1.037-1.06,1.855-2.324,2.456-3.791c0.6-1.469,0.9-3.018,0.9-4.648s-0.3-3.166-0.9-4.607c-0.6-1.439-1.418-2.704-2.456-3.792
			c-1.037-1.087-2.278-1.942-3.723-2.568c-1.446-0.624-2.988-0.938-4.624-0.938H253.38z"/>
		<path d="M314.702,59.589v53.737h-4.647V59.589H314.702z"/>
		<path d="M344.138,113.326V59.589h14.64c2.222,0,4.311,0.436,6.262,1.305c1.952,0.87,3.66,2.066,5.124,3.588
			c1.463,1.522,2.628,3.289,3.496,5.3c0.867,2.012,1.302,4.159,1.302,6.442s-0.42,4.432-1.26,6.441
			c-0.841,2.012-1.979,3.766-3.415,5.26c-1.436,1.496-3.129,2.679-5.08,3.548c-1.951,0.87-4.037,1.305-6.26,1.305h-10.161v20.549
			H344.138z M348.786,64.318v23.729h10.193c1.576,0,3.058-0.312,4.444-0.938c1.386-0.624,2.581-1.468,3.588-2.527
			c1.005-1.061,1.807-2.311,2.405-3.751c0.598-1.44,0.897-2.977,0.897-4.607s-0.3-3.181-0.897-4.648
			c-0.599-1.468-1.414-2.731-2.446-3.792c-1.033-1.06-2.242-1.901-3.629-2.527c-1.386-0.624-2.868-0.938-4.444-0.938H348.786z"/>
		<path d="M437.996,59.589v4.729h-20.712v49.008h-4.648V64.318h-20.876v-4.729H437.996z"/>
		<path d="M475.751,57.713L498.176,113c-0.763,0.218-1.36,0.38-1.795,0.489c-0.436,0.108-0.788,0.204-1.06,0.285
			c-0.272,0.082-0.53,0.149-0.774,0.204c-0.245,0.054-0.53,0.108-0.856,0.163l-9.052-21.364H466.7l-4.24,10.355
			c-0.763,1.794-1.55,3.67-2.365,5.627s-1.549,3.806-2.201,5.545c-0.381-0.109-0.856-0.231-1.428-0.367
			c-0.57-0.136-1.59-0.366-3.058-0.693L475.751,57.713z M482.764,88.455c-0.6-1.848-1.522-4.375-2.772-7.583
			c-1.252-3.207-2.665-7.04-4.24-11.498l-7.34,19.081H482.764z"/>
		<path d="M568.058,57.632v55.694h-4.647V71.005L544.9,93.919L526.226,70.76v42.566h-4.648V57.55l23.281,28.785L568.058,57.632z"/>
		<path d="M600.839,59.589v53.737h-4.647V59.589H600.839z"/>
	</g>
</g>
</svg>
