<?xml version="1.0" encoding="utf-8"?>
<!-- Generator: Adobe Illustrator 15.0.0, SVG Export Plug-In . SVG Version: 6.00 Build 0)  -->
<!DOCTYPE svg PUBLIC "-//W3C//DTD SVG 1.1//EN" "http://www.w3.org/Graphics/SVG/1.1/DTD/svg11.dtd">
<svg version="1.1" id="Layer_1" xmlns="http://www.w3.org/2000/svg" xmlns:xlink="http://www.w3.org/1999/xlink" x="0px" y="0px"
	 width="340.157px" height="226.772px" viewBox="0 0 340.157 226.772" enable-background="new 0 0 340.157 226.772"
	 xml:space="preserve">
<g>
	<g>
		
			<linearGradient id="SVGID_1_" gradientUnits="userSpaceOnUse" x1="173.9844" y1="118.7749" x2="283.2598" y2="118.7749" gradientTransform="matrix(0 -1 1 0 49.7344 283.6196)">
			<stop  offset="0" style="stop-color:#A6CE39"/>
			<stop  offset="0.5031" style="stop-color:#F8991D"/>
			<stop  offset="0.6034" style="stop-color:#F9A11B"/>
			<stop  offset="0.7813" style="stop-color:#FDB714"/>
			<stop  offset="1" style="stop-color:#FFD800"/>
		</linearGradient>
		<polygon opacity="0.88" fill="url(#SVGID_1_)" points="165.167,109.635 204.803,0.36 159.294,25.23 132.215,90.143 		"/>
		
			<linearGradient id="SVGID_2_" gradientUnits="userSpaceOnUse" x1="160.2402" y1="107.1968" x2="207.0547" y2="107.1968" gradientTransform="matrix(0 1 -1 0 285.2446 -50.605)">
			<stop  offset="0" style="stop-color:#A6CE39"/>
			<stop  offset="0.5031" style="stop-color:#F8991D"/>
			<stop  offset="0.6034" style="stop-color:#F9A11B"/>
			<stop  offset="0.7813" style="stop-color:#FDB714"/>
			<stop  offset="1" style="stop-color:#FFD800"/>
		</linearGradient>
		<polygon opacity="0.88" fill="url(#SVGID_2_)" points="165.167,109.635 149.017,156.45 207.079,109.635 207.079,109.635 		"/>
		
			<linearGradient id="SVGID_3_" gradientUnits="userSpaceOnUse" x1="173.9844" y1="118.7749" x2="283.2598" y2="118.7749" gradientTransform="matrix(0 -1 1 0 49.7344 283.6196)">
			<stop  offset="0" style="stop-color:#000000"/>
			<stop  offset="0.1085" style="stop-color:#131313;stop-opacity:0.8915"/>
			<stop  offset="0.2324" style="stop-color:#353436;stop-opacity:0.7676"/>
			<stop  offset="0.3637" style="stop-color:#505052;stop-opacity:0.6363"/>
			<stop  offset="0.5003" style="stop-color:#6B6C6E;stop-opacity:0.4997"/>
			<stop  offset="0.641" style="stop-color:#8A8C8E;stop-opacity:0.359"/>
			<stop  offset="0.7852" style="stop-color:#B1B3B5;stop-opacity:0.2148"/>
			<stop  offset="0.9294" style="stop-color:#E1E2E3;stop-opacity:0.0706"/>
			<stop  offset="1" style="stop-color:#FFFFFF;stop-opacity:0"/>
		</linearGradient>
		<polygon opacity="0.18" fill="url(#SVGID_3_)" points="165.167,109.635 204.803,0.36 159.294,25.23 132.215,90.143 		"/>
		
			<linearGradient id="SVGID_4_" gradientUnits="userSpaceOnUse" x1="160.2402" y1="107.1968" x2="207.0547" y2="107.1968" gradientTransform="matrix(0 1 -1 0 285.2446 -50.605)">
			<stop  offset="0" style="stop-color:#000000;stop-opacity:0.83"/>
			<stop  offset="0.1085" style="stop-color:#131313;stop-opacity:0.7399"/>
			<stop  offset="0.2324" style="stop-color:#353436;stop-opacity:0.6371"/>
			<stop  offset="0.3637" style="stop-color:#505052;stop-opacity:0.5282"/>
			<stop  offset="0.5003" style="stop-color:#6B6C6E;stop-opacity:0.4148"/>
			<stop  offset="0.641" style="stop-color:#8A8C8E;stop-opacity:0.298"/>
			<stop  offset="0.7852" style="stop-color:#B1B3B5;stop-opacity:0.1783"/>
			<stop  offset="0.9294" style="stop-color:#E1E2E3;stop-opacity:0.0586"/>
			<stop  offset="1" style="stop-color:#FFFFFF;stop-opacity:0"/>
		</linearGradient>
		<polygon opacity="0.18" fill="url(#SVGID_4_)" points="165.167,109.635 149.017,156.45 207.079,109.635 207.079,109.635 		"/>
		
			<linearGradient id="SVGID_5_" gradientUnits="userSpaceOnUse" x1="173.9844" y1="119.9126" x2="258.3896" y2="119.9126" gradientTransform="matrix(0 -1 1 0 49.7344 283.6196)">
			<stop  offset="0" style="stop-color:#A6CE39"/>
			<stop  offset="0.5031" style="stop-color:#00B5AD"/>
			<stop  offset="0.616" style="stop-color:#00B8B3"/>
			<stop  offset="0.8155" style="stop-color:#44C1C5"/>
			<stop  offset="1" style="stop-color:#70CCD9"/>
		</linearGradient>
		<polygon opacity="0.88" fill="url(#SVGID_5_)" points="165.167,109.635 207.079,109.635 159.294,25.23 132.215,90.143 		"/>
	</g>
	<g>
		<path d="M26.858,215.323c0,1.751-0.37,3.302-1.109,4.652c-0.741,1.353-1.746,2.483-3.017,3.396
			c-1.272,0.913-2.752,1.608-4.44,2.084c-1.69,0.475-3.481,0.714-5.379,0.714c-0.797,0-1.689-0.058-2.675-0.172
			c-0.989-0.113-2.003-0.274-3.046-0.483c-1.043-0.208-2.086-0.455-3.129-0.738c-1.045-0.288-2.041-0.602-2.989-0.941l1.366-2.733
			l1.822,0.4c0.455,0.113,0.984,0.247,1.592,0.398c0.607,0.152,1.253,0.284,1.937,0.398c0.683,0.114,1.365,0.218,2.049,0.313
			c0.683,0.094,1.31,0.142,1.878,0.142h2.333c1.253,0,2.448-0.171,3.587-0.512c1.138-0.342,2.143-0.844,3.017-1.511
			c0.871-0.663,1.565-1.479,2.078-2.447c0.511-0.967,0.768-2.077,0.768-3.329c0-0.53-0.134-1.12-0.398-1.767
			c-0.266-0.643-0.55-1.175-0.854-1.592v0.058c-0.534-0.72-1.131-1.3-1.793-1.738c-0.665-0.435-1.348-0.769-2.049-0.996
			c-0.704-0.228-1.444-0.389-2.221-0.483c-0.778-0.094-1.547-0.181-2.305-0.256c-1.291-0.075-2.6-0.199-3.927-0.37
			c-1.329-0.17-2.6-0.634-3.814-1.396v0.057c-1.366-0.757-2.497-1.857-3.388-3.3s-1.337-3.074-1.337-4.897
			c0-2.503,0.92-4.646,2.761-6.432c1.84-1.782,4.297-2.996,7.372-3.644h-0.057c0.455-0.076,1.127-0.16,2.021-0.256
			c0.891-0.094,1.888-0.143,2.988-0.143c0.607,0,1.309,0.065,2.107,0.196c0.796,0.13,1.623,0.292,2.477,0.479
			c0.853,0.187,1.697,0.41,2.532,0.67c0.835,0.262,1.594,0.522,2.278,0.784l-1.309,3.053c-0.988-0.342-1.89-0.635-2.705-0.883
			c-0.816-0.246-1.593-0.436-2.333-0.569c-0.74-0.133-1.461-0.237-2.163-0.314c-0.703-0.074-1.433-0.112-2.192-0.112
			c-1.176,0-2.382,0.141-3.615,0.427c-1.232,0.283-2.362,0.712-3.387,1.281c-1.024,0.569-1.869,1.31-2.532,2.22
			c-0.665,0.912-0.997,1.993-0.997,3.243c0,0.419,0.076,0.865,0.228,1.34c0.152,0.476,0.36,0.939,0.627,1.394
			c0.269,0.456,0.571,0.894,0.915,1.309c0.341,0.417,0.703,0.762,1.084,1.026c0.989,0.607,2.026,0.996,3.109,1.167
			c1.086,0.171,2.178,0.294,3.283,0.37c1.293,0.075,2.69,0.266,4.194,0.569c1.502,0.304,2.901,0.856,4.195,1.657
			c0.685,0.455,1.303,0.998,1.854,1.626c0.551,0.627,1.027,1.303,1.426,2.026c0.4,0.724,0.715,1.475,0.943,2.253
			C26.744,213.792,26.858,214.564,26.858,215.323z"/>
		<path d="M76.553,220.947c-1.974,1.633-4.061,2.894-6.261,3.786c-2.202,0.892-4.518,1.337-6.946,1.337
			c-2.655,0-5.142-0.511-7.456-1.539c-2.315-1.023-4.336-2.396-6.062-4.125c-1.728-1.727-3.083-3.747-4.07-6.062
			c-0.988-2.314-1.48-4.783-1.48-7.399c0-2.656,0.493-5.144,1.48-7.458c0.986-2.315,2.342-4.347,4.07-6.092
			c1.726-1.746,3.748-3.121,6.062-4.126c2.314-1.006,4.801-1.51,7.456-1.51c2.05,0,4.1,0.379,6.149,1.141
			c2.048,0.759,4.078,1.858,6.091,3.301l-2.562,2.049c-3.036-2.124-6.262-3.188-9.678-3.188c-2.2,0-4.26,0.417-6.176,1.252
			c-1.916,0.834-3.585,1.959-5.01,3.381c-1.422,1.419-2.551,3.104-3.387,5.057c-0.834,1.949-1.251,4.024-1.251,6.222
			c0,2.158,0.417,4.195,1.251,6.106c0.835,1.915,1.964,3.592,3.387,5.031c1.424,1.439,3.094,2.575,5.01,3.41
			c1.916,0.832,3.976,1.249,6.176,1.249c1.936,0,3.843-0.388,5.72-1.167c1.879-0.778,3.672-1.889,5.381-3.33L76.553,220.947z"/>
		<path d="M96.532,211.441v14.287h-3.245v-37.514h10.731c1.627,0,3.131,0.325,4.514,0.969c1.381,0.646,2.583,1.509,3.605,2.589
			c1.022,1.082,1.826,2.315,2.412,3.701c0.587,1.385,0.881,2.817,0.881,4.299c0,1.138-0.152,2.257-0.456,3.358
			c-0.304,1.1-0.761,2.115-1.366,3.043c-0.607,0.933-1.339,1.757-2.191,2.478c-0.854,0.721-1.813,1.309-2.875,1.766
			c0.758,0.986,1.527,1.982,2.305,2.986c0.777,1.008,1.545,2.004,2.306,2.989l7.172,9.336h-4.157l-11.042-14.287H96.532z
			 M96.532,191.515v16.623h7.485c1.141,0,2.218-0.218,3.227-0.653c1.01-0.436,1.875-1.025,2.599-1.765
			c0.724-0.74,1.296-1.624,1.714-2.646c0.419-1.026,0.629-2.107,0.629-3.244c0-1.142-0.209-2.212-0.629-3.218
			c-0.418-1.004-0.99-1.889-1.714-2.646c-0.725-0.759-1.589-1.357-2.599-1.794c-1.008-0.437-2.085-0.656-3.227-0.656H96.532z"/>
		<path d="M139.339,188.214v37.514h-3.245v-37.514H139.339z"/>
		<path d="M159.888,225.728v-37.514h10.22c1.55,0,3.007,0.307,4.371,0.912c1.362,0.607,2.555,1.442,3.578,2.503
			c1.02,1.064,1.833,2.298,2.438,3.701c0.607,1.405,0.91,2.903,0.91,4.499c0,1.593-0.293,3.093-0.881,4.496
			c-0.586,1.403-1.38,2.629-2.383,3.671c-1.002,1.044-2.184,1.868-3.546,2.477c-1.364,0.607-2.818,0.912-4.371,0.912h-7.093v14.343
			H159.888z M163.132,191.515v16.566h7.116c1.101,0,2.134-0.218,3.101-0.653c0.97-0.436,1.804-1.025,2.506-1.766
			c0.701-0.74,1.262-1.613,1.682-2.618c0.416-1.007,0.625-2.078,0.625-3.215c0-1.142-0.209-2.222-0.625-3.246
			c-0.42-1.024-0.99-1.907-1.71-2.646c-0.722-0.74-1.564-1.329-2.534-1.766c-0.966-0.437-2-0.656-3.101-0.656H163.132z"/>
		<path d="M225.408,188.214v3.301h-14.46v34.213h-3.244v-34.213h-14.572v-3.301H225.408z"/>
		<path d="M251.765,186.906l15.653,38.596c-0.532,0.15-0.95,0.265-1.254,0.341c-0.304,0.075-0.549,0.143-0.739,0.199
			c-0.188,0.057-0.368,0.104-0.538,0.144c-0.172,0.036-0.372,0.074-0.6,0.112l-6.317-14.912h-12.524l-2.961,7.228
			c-0.532,1.252-1.082,2.562-1.65,3.928s-1.081,2.657-1.535,3.871c-0.269-0.077-0.601-0.161-0.999-0.256
			c-0.396-0.095-1.108-0.257-2.132-0.484L251.765,186.906z M256.658,208.367c-0.417-1.288-1.062-3.055-1.935-5.293
			s-1.861-4.917-2.959-8.027l-5.124,13.32H256.658z"/>
		<path d="M316.202,186.849v38.879h-3.245v-29.542l-12.922,15.995l-13.034-16.166v29.713h-3.247v-38.937l16.252,20.096
			L316.202,186.849z"/>
		<path d="M339.085,188.214v37.514h-3.244v-37.514H339.085z"/>
	</g>
</g>
</svg>
